<svg width="25" height="24" viewBox="0 0 25 24" fill="none" xmlns="http://www.w3.org/2000/svg">
<g id="Facebook Logo">
<rect width="24" height="24" transform="translate(0.5)" fill="#1877F2"/>
<path id="path14" d="M24 12.0699C24 5.7186 18.8513 0.56988 12.5 0.56988C6.14872 0.56988 1 5.7186 1 12.0699C1 17.8099 5.20538 22.5674 10.7031 23.4302V15.3941H7.7832V12.0699H10.7031V9.53629C10.7031 6.6541 12.42 5.06207 15.0468 5.06207C16.305 5.06207 17.6211 5.28668 17.6211 5.28668V8.11675H16.171C14.7424 8.11675 14.2969 9.00322 14.2969 9.91266V12.0699H17.4863L16.9765 15.3941H14.2969V23.4302C19.7946 22.5674 24 17.8099 24 12.0699Z" fill="white"/>
</g>
</svg>
