<svg width="24" height="24" viewBox="0 0 24 24" fill="none" xmlns="http://www.w3.org/2000/svg">
<path d="M12.0003 0.569824C5.5286 0.569824 0.280762 5.81675 0.280762 12.2893C0.280762 17.4674 3.63876 21.8604 8.29531 23.41C8.88099 23.5185 9.09607 23.1558 9.09607 22.8462C9.09607 22.5668 9.08513 21.6435 9.08017 20.6643C5.8197 21.3732 5.13172 19.2815 5.13172 19.2815C4.59862 17.9269 3.83049 17.5668 3.83049 17.5668C2.76723 16.8394 3.91064 16.8543 3.91064 16.8543C5.08751 16.937 5.70719 18.062 5.70719 18.062C6.75244 19.8537 8.44881 19.3357 9.11758 19.0363C9.22273 18.2788 9.5265 17.7618 9.86162 17.4692C7.25861 17.1727 4.52214 16.1679 4.52214 11.6773C4.52214 10.3978 4.97997 9.35232 5.72971 8.53162C5.60802 8.23639 5.2069 7.04445 5.84323 5.43016C5.84323 5.43016 6.82735 5.11517 9.06693 6.63147C10.0017 6.37173 11.0043 6.24157 12.0003 6.23716C12.9963 6.24157 13.9996 6.37173 14.9362 6.63147C17.1731 5.11517 18.1559 5.43016 18.1559 5.43016C18.7938 7.04445 18.3925 8.23639 18.2708 8.53162C19.0222 9.35232 19.4769 10.3978 19.4769 11.6773C19.4769 16.1785 16.7352 17.1697 14.1256 17.4598C14.5459 17.8235 14.9205 18.5368 14.9205 19.6301C14.9205 21.1981 14.9069 22.4602 14.9069 22.8462C14.9069 23.1581 15.1178 23.5236 15.712 23.4085C20.3659 21.8571 23.7197 17.4657 23.7197 12.2893C23.7197 5.81675 18.4726 0.569824 12.0003 0.569824Z" fill="white"/>
<path d="M4.66997 17.264C4.64424 17.3222 4.5525 17.3397 4.46914 17.2998C4.38412 17.2616 4.33632 17.1821 4.3639 17.1237C4.38917 17.0638 4.4809 17.047 4.56574 17.0873C4.65094 17.1254 4.69948 17.2056 4.66997 17.264ZM5.24646 17.7784C5.19057 17.8302 5.08129 17.8062 5.00711 17.7243C4.93046 17.6425 4.91612 17.5333 4.97283 17.4807C5.03046 17.4289 5.13644 17.4531 5.21328 17.5349C5.28993 17.6175 5.30482 17.7261 5.24637 17.7785M5.64196 18.4365C5.57009 18.4864 5.45262 18.4396 5.3801 18.3354C5.30832 18.2313 5.30832 18.1062 5.38166 18.0562C5.45446 18.0061 5.57009 18.0511 5.64362 18.1545C5.71531 18.2605 5.71531 18.3855 5.64187 18.4366M6.31073 19.1987C6.24648 19.2695 6.10972 19.2506 6.00953 19.1539C5.90714 19.0594 5.87855 18.9253 5.94298 18.8544C6.00797 18.7835 6.14556 18.8034 6.24648 18.8993C6.34823 18.9936 6.3793 19.1287 6.31082 19.1987M7.17509 19.4561C7.14688 19.5478 7.01507 19.5896 6.88235 19.5506C6.74981 19.5104 6.66304 19.4029 6.68979 19.3101C6.71736 19.2178 6.84972 19.1743 6.98345 19.216C7.11581 19.256 7.20276 19.3627 7.17518 19.4561M8.15894 19.5652C8.16225 19.6619 8.04966 19.742 7.91032 19.7438C7.77015 19.7468 7.65682 19.6686 7.65534 19.5736C7.65534 19.476 7.76537 19.3965 7.90544 19.3942C8.04479 19.3915 8.15894 19.4692 8.15894 19.5652ZM9.12533 19.5282C9.14206 19.6225 9.04518 19.7193 8.90685 19.7451C8.77082 19.7699 8.64489 19.7117 8.62752 19.6182C8.61061 19.5215 8.70933 19.4248 8.84508 19.3997C8.98369 19.3756 9.10768 19.4323 9.12533 19.5282Z" fill="white"/>
</svg>
