<svg width="190" height="24" viewBox="0 0 190 24" fill="none" xmlns="http://www.w3.org/2000/svg">
<path d="M56.3426 23.0836C55.747 23.0836 55.2475 22.8762 54.844 22.4614C54.4406 22.0465 54.2389 21.5329 54.2389 20.9205C54.2389 20.3081 54.4406 19.7945 54.844 19.3796C55.2475 18.9648 55.747 18.7573 56.3426 18.7573C56.9189 18.7573 57.4089 18.9648 57.8123 19.3796C58.2158 19.7945 58.4175 20.3081 58.4175 20.9205C58.4175 21.5329 58.2158 22.0465 57.8123 22.4614C57.4089 22.8762 56.9189 23.0836 56.3426 23.0836Z" fill="#49AA26"/>
<path d="M0 14.6384C0 12.9987 0.326606 11.5467 0.979818 10.2824C1.65224 9.01811 2.55521 8.04024 3.68873 7.34882C4.84145 6.63764 6.11906 6.28206 7.52154 6.28206C8.559 6.28206 9.57724 6.51911 10.5763 6.99323C11.5945 7.4476 12.4014 8.06 12.997 8.83044V0.948235H16.3111V22.8762H12.997V20.4167C12.4591 21.2069 11.7098 21.8588 10.7492 22.3724C9.80779 22.886 8.7223 23.1429 7.49272 23.1429C6.10945 23.1429 4.84145 22.7873 3.68873 22.0761C2.55521 21.3452 1.65224 20.3377 0.979818 19.0536C0.326606 17.7498 0 16.278 0 14.6384ZM12.997 14.6976C12.997 13.5716 12.7664 12.5937 12.3054 11.764C11.8635 10.9343 11.2775 10.3022 10.5475 9.86757C9.81739 9.43296 9.02969 9.21566 8.18436 9.21566C7.33903 9.21566 6.55133 9.43296 5.82127 9.86757C5.09121 10.2824 4.49563 10.9047 4.03454 11.7344C3.59267 12.5444 3.37173 13.5123 3.37173 14.6384C3.37173 15.7644 3.59267 16.7521 4.03454 17.6016C4.49563 18.4511 5.09121 19.103 5.82127 19.5573C6.57054 19.992 7.35824 20.2093 8.18436 20.2093C9.02969 20.2093 9.81739 19.992 10.5475 19.5573C11.2775 19.1227 11.8635 18.4906 12.3054 17.6609C12.7664 16.8114 12.997 15.8237 12.997 14.6976Z" fill="#E5E7EB"/>
<path d="M35.1793 14.3124C35.1793 14.9248 35.1409 15.478 35.0641 15.9718H22.9316C23.0277 17.2757 23.4984 18.3227 24.3437 19.1129C25.189 19.9031 26.2265 20.2982 27.4561 20.2982C29.2236 20.2982 30.4724 19.5376 31.2024 18.0165H34.7471C34.2668 19.5178 33.3926 20.7525 32.1246 21.7205C30.8758 22.6687 29.3196 23.1429 27.4561 23.1429C25.9383 23.1429 24.5742 22.7971 23.3639 22.1057C22.1727 21.3946 21.2313 20.4068 20.5397 19.1425C19.8673 17.8584 19.5311 16.3768 19.5311 14.6976C19.5311 13.0185 19.8577 11.5467 20.5109 10.2824C21.1833 8.99835 22.1151 8.01061 23.3062 7.31919C24.5166 6.62777 25.8999 6.28206 27.4561 6.28206C28.9546 6.28206 30.2898 6.61789 31.4618 7.28956C32.6337 7.96122 33.5463 8.90946 34.1995 10.1343C34.8527 11.3393 35.1793 12.732 35.1793 14.3124ZM31.75 13.2457C31.7308 12.0011 31.2985 11.0035 30.4531 10.2528C29.6078 9.5021 28.5608 9.12676 27.312 9.12676C26.1785 9.12676 25.2082 9.5021 24.4013 10.2528C23.5944 10.9837 23.1141 11.9813 22.9604 13.2457H31.75Z" fill="#E5E7EB"/>
<path d="M44.5506 19.8537L49.0463 6.54875H52.5333L46.4815 22.8762H42.5622L36.5392 6.54875H40.055L44.5506 19.8537Z" fill="#E5E7EB"/>
<path d="M56.3422 23.0836C55.7466 23.0836 55.2471 22.8762 54.8437 22.4613C54.4402 22.0465 54.2385 21.5328 54.2385 20.9204C54.2385 20.308 54.4402 19.7944 54.8437 19.3796C55.2471 18.9647 55.7466 18.7573 56.3422 18.7573C56.9186 18.7573 57.4085 18.9647 57.812 19.3796C58.2154 19.7944 58.4171 20.308 58.4171 20.9204C58.4171 21.5328 58.2154 22.0465 57.812 22.4613C57.4085 22.8762 56.9186 23.0836 56.3422 23.0836Z" fill="#E5E7EB"/>
<path d="M68.6248 9.30455H65.6854V22.8762H62.3713V9.30455H60.4981V6.54875H62.3713V5.39309C62.3713 3.51637 62.8516 2.15328 63.8122 1.30382C64.792 0.434607 66.3194 0 68.3943 0V2.81507C67.3953 2.81507 66.694 3.01262 66.2906 3.40772C65.8871 3.78306 65.6854 4.44485 65.6854 5.39309V6.54875H68.6248V9.30455Z" fill="#E5E7EB"/>
<path d="M73.2078 4.38559C72.6123 4.38559 72.1127 4.17816 71.7093 3.76331C71.3058 3.34845 71.1041 2.83483 71.1041 2.22243C71.1041 1.61002 71.3058 1.0964 71.7093 0.681544C72.1127 0.266691 72.6123 0.0592639 73.2078 0.0592639C73.7842 0.0592639 74.2741 0.266691 74.6776 0.681544C75.081 1.0964 75.2827 1.61002 75.2827 2.22243C75.2827 2.83483 75.081 3.34845 74.6776 3.76331C74.2741 4.17816 73.7842 4.38559 73.2078 4.38559ZM74.8216 6.54875V22.8762H71.5364V6.54875H74.8216Z" fill="#E5E7EB"/>
<path d="M87.1464 6.28206C88.3951 6.28206 89.5095 6.54875 90.4893 7.08213C91.4883 7.61551 92.2664 8.40571 92.8236 9.45272C93.3807 10.4997 93.6593 11.764 93.6593 13.2457V22.8762H90.4028V13.7494C90.4028 12.2875 90.0474 11.1714 89.3365 10.401C88.6257 9.61076 87.6555 9.21566 86.4259 9.21566C85.1963 9.21566 84.2165 9.61076 83.4865 10.401C82.7756 11.1714 82.4202 12.2875 82.4202 13.7494V22.8762H79.1349V6.54875H82.4202V8.41558C82.9581 7.74392 83.6402 7.22041 84.4663 6.84507C85.3116 6.46973 86.205 6.28206 87.1464 6.28206Z" fill="#E5E7EB"/>
<path d="M96.7548 14.6384C96.7548 12.9987 97.0814 11.5467 97.7346 10.2824C98.407 9.01811 99.31 8.04024 100.443 7.34882C101.596 6.63764 102.864 6.28206 104.247 6.28206C105.496 6.28206 106.582 6.53887 107.504 7.0525C108.445 7.54637 109.195 8.16865 109.752 8.91933V6.54875H113.066V22.8762H109.752V20.4463C109.195 21.2168 108.436 21.8588 107.475 22.3724C106.515 22.886 105.419 23.1429 104.19 23.1429C102.826 23.1429 101.577 22.7873 100.443 22.0761C99.31 21.3452 98.407 20.3377 97.7346 19.0536C97.0814 17.7498 96.7548 16.278 96.7548 14.6384ZM109.752 14.6976C109.752 13.5716 109.521 12.5937 109.06 11.764C108.618 10.9343 108.032 10.3022 107.302 9.86757C106.572 9.43296 105.784 9.21566 104.939 9.21566C104.094 9.21566 103.306 9.43296 102.576 9.86757C101.846 10.2824 101.25 10.9047 100.789 11.7344C100.347 12.5444 100.126 13.5123 100.126 14.6384C100.126 15.7644 100.347 16.7521 100.789 17.6016C101.25 18.4511 101.846 19.103 102.576 19.5573C103.325 19.992 104.113 20.2093 104.939 20.2093C105.784 20.2093 106.572 19.992 107.302 19.5573C108.032 19.1227 108.618 18.4906 109.06 17.6609C109.521 16.8114 109.752 15.8237 109.752 14.6976Z" fill="#E5E7EB"/>
<path d="M125.392 6.28206C126.641 6.28206 127.755 6.54875 128.735 7.08213C129.734 7.61551 130.512 8.40571 131.07 9.45272C131.627 10.4997 131.905 11.764 131.905 13.2457V22.8762H128.649V13.7494C128.649 12.2875 128.293 11.1714 127.583 10.401C126.872 9.61076 125.901 9.21566 124.672 9.21566C123.442 9.21566 122.463 9.61076 121.732 10.401C121.022 11.1714 120.666 12.2875 120.666 13.7494V22.8762H117.381V6.54875H120.666V8.41558C121.204 7.74392 121.886 7.22041 122.712 6.84507C123.558 6.46973 124.451 6.28206 125.392 6.28206Z" fill="#E5E7EB"/>
<path d="M135.001 14.6976C135.001 13.0185 135.327 11.5467 135.981 10.2824C136.653 8.99835 137.575 8.01061 138.747 7.31919C139.919 6.62777 141.264 6.28206 142.782 6.28206C144.703 6.28206 146.288 6.75617 147.537 7.70441C148.805 8.63289 149.66 9.96634 150.101 11.7048H146.557C146.269 10.8948 145.808 10.2627 145.174 9.8083C144.54 9.35394 143.742 9.12676 142.782 9.12676C141.437 9.12676 140.361 9.62063 139.554 10.6084C138.766 11.5764 138.372 12.9395 138.372 14.6976C138.372 16.4558 138.766 17.8288 139.554 18.8165C140.361 19.8043 141.437 20.2982 142.782 20.2982C144.684 20.2982 145.942 19.4388 146.557 17.7201H150.101C149.64 19.3796 148.776 20.7031 147.508 21.6909C146.24 22.6589 144.664 23.1429 142.782 23.1429C141.264 23.1429 139.919 22.7971 138.747 22.1057C137.575 21.3946 136.653 20.4068 135.981 19.1425C135.327 17.8584 135.001 16.3768 135.001 14.6976Z" fill="#E5E7EB"/>
<path d="M167.929 14.3124C167.929 14.9248 167.89 15.478 167.813 15.9718H155.681C155.777 17.2757 156.248 18.3227 157.093 19.1129C157.938 19.9031 158.976 20.2982 160.205 20.2982C161.973 20.2982 163.222 19.5376 163.952 18.0165H167.496C167.016 19.5178 166.142 20.7525 164.874 21.7205C163.625 22.6687 162.069 23.1429 160.205 23.1429C158.688 23.1429 157.324 22.7971 156.113 22.1057C154.922 21.3946 153.981 20.4068 153.289 19.1425C152.617 17.8584 152.28 16.3768 152.28 14.6976C152.28 13.0185 152.607 11.5467 153.26 10.2824C153.933 8.99835 154.864 8.01061 156.056 7.31919C157.266 6.62777 158.649 6.28206 160.205 6.28206C161.704 6.28206 163.039 6.61789 164.211 7.28956C165.383 7.96122 166.296 8.90946 166.949 10.1343C167.602 11.3393 167.929 12.732 167.929 14.3124ZM164.499 13.2457C164.48 12.0011 164.048 11.0035 163.202 10.2528C162.357 9.5021 161.31 9.12676 160.061 9.12676C158.928 9.12676 157.958 9.5021 157.151 10.2528C156.344 10.9837 155.863 11.9813 155.71 13.2457H164.499Z" fill="#E5E7EB"/>
<path d="M189.792 16.8481C189.792 17.6846 189.549 18.4709 189.065 19.207C188.599 19.9431 187.901 20.562 186.97 21.0639C186.059 21.5658 184.973 21.867 183.713 21.9673V24H181.822V21.9673C180 21.8168 178.526 21.3232 177.401 20.4868C176.277 19.6503 175.714 18.5461 175.714 17.1743H179.263C179.321 17.8268 179.563 18.3705 179.99 18.8054C180.416 19.2237 181.027 19.4914 181.822 19.6085V14.0877C180.523 13.8033 179.466 13.5189 178.652 13.2345C177.838 12.9334 177.139 12.4649 176.558 11.8292C175.995 11.1935 175.714 10.3236 175.714 9.21942C175.714 7.83087 176.277 6.68489 177.401 5.7815C178.526 4.86137 180 4.32603 181.822 4.17546V2.14282H183.713V4.17546C185.419 4.3093 186.786 4.77772 187.814 5.58074C188.861 6.36703 189.452 7.45445 189.588 8.843H186.04C185.981 8.32439 185.749 7.86432 185.342 7.46282C184.934 7.04458 184.391 6.76018 183.713 6.60961V12.03C185.012 12.2977 186.069 12.5821 186.883 12.8832C187.698 13.1676 188.386 13.6277 188.948 14.2634C189.511 14.8824 189.792 15.7439 189.792 16.8481ZM179.088 9.06885C179.088 9.75476 179.321 10.2901 179.786 10.6749C180.271 11.0597 180.95 11.3692 181.822 11.6034V6.53433C180.988 6.61797 180.319 6.87728 179.815 7.31225C179.331 7.74722 179.088 8.33275 179.088 9.06885ZM183.713 19.6085C184.566 19.4914 185.235 19.1986 185.72 18.7302C186.204 18.245 186.447 17.6678 186.447 16.9987C186.447 16.3295 186.204 15.8109 185.72 15.4428C185.254 15.058 184.585 14.7485 183.713 14.5143V19.6085Z" fill="#49AA26"/>
</svg>
