<svg width="293" height="37" viewBox="0 0 293 37" fill="none" xmlns="http://www.w3.org/2000/svg">
<path d="M86.8614 35.5873C85.9432 35.5873 85.1731 35.2675 84.5512 34.6279C83.9292 33.9884 83.6182 33.1965 83.6182 32.2524C83.6182 31.3083 83.9292 30.5165 84.5512 29.8769C85.1731 29.2373 85.9432 28.9175 86.8614 28.9175C87.75 28.9175 88.5052 29.2373 89.1272 29.8769C89.7492 30.5165 90.0602 31.3083 90.0602 32.2524C90.0602 33.1965 89.7492 33.9884 89.1272 34.6279C88.5052 35.2675 87.75 35.5873 86.8614 35.5873Z" fill="#49AA26"/>
<path d="M0 22.5675C0 20.0397 0.503517 17.8012 1.51055 15.8521C2.54721 13.9029 3.93928 12.3954 5.68679 11.3294C7.46391 10.233 9.43355 9.68484 11.5957 9.68484C13.1951 9.68484 14.7649 10.0503 16.3051 10.7812C17.8749 11.4817 19.1189 12.4258 20.037 13.6136V1.46186H25.1463V35.2674H20.037V31.4757C19.2077 32.6939 18.0526 33.699 16.5716 34.4908C15.1203 35.2826 13.4469 35.6786 11.5513 35.6786C9.41874 35.6786 7.46391 35.1304 5.68679 34.034C3.93928 32.9071 2.54721 31.3539 1.51055 29.3743C0.503517 27.3642 0 25.0953 0 22.5675ZM20.037 22.6589C20.037 20.9229 19.6816 19.4154 18.9708 18.1362C18.2895 16.8571 17.3862 15.8825 16.2607 15.2125C15.1351 14.5425 13.9208 14.2075 12.6176 14.2075C11.3143 14.2075 10.1 14.5425 8.97446 15.2125C7.84895 15.8521 6.93077 16.8114 6.21992 18.0905C5.53869 19.3392 5.19808 20.8315 5.19808 22.5675C5.19808 24.3035 5.53869 25.8262 6.21992 27.1358C6.93077 28.4454 7.84895 29.4504 8.97446 30.1509C10.1296 30.8209 11.344 31.1559 12.6176 31.1559C13.9208 31.1559 15.1351 30.8209 16.2607 30.1509C17.3862 29.4809 18.2895 28.5063 18.9708 27.2272C19.6816 25.9176 20.037 24.3948 20.037 22.6589Z" fill="#E5E7EB"/>
<path d="M54.2348 22.065C54.2348 23.0091 54.1756 23.8619 54.0571 24.6232H35.3529C35.501 26.6333 36.2266 28.2474 37.5299 29.4657C38.8331 30.6839 40.4325 31.293 42.3281 31.293C45.053 31.293 46.9782 30.1205 48.1037 27.7754H53.5684C52.8279 30.09 51.4803 31.9935 49.5254 33.4858C47.6002 34.9476 45.2011 35.6786 42.3281 35.6786C39.9882 35.6786 37.8853 35.1456 36.0193 34.0797C34.183 32.9833 32.7316 31.4605 31.6654 29.5113C30.6287 27.5317 30.1104 25.2476 30.1104 22.6589C30.1104 20.0701 30.6139 17.8012 31.6209 15.8521C32.6576 13.8725 34.0941 12.3497 35.9305 11.2837C37.7964 10.2178 39.929 9.68484 42.3281 9.68484C44.6383 9.68484 46.6968 10.2026 48.5036 11.2381C50.3103 12.2736 51.7172 13.7354 52.7242 15.6237C53.7313 17.4814 54.2348 19.6285 54.2348 22.065ZM48.9479 20.4204C48.9182 18.5017 48.2518 16.9637 46.9486 15.8064C45.6454 14.6491 44.0312 14.0704 42.106 14.0704C40.3584 14.0704 38.8627 14.6491 37.6187 15.8064C36.3747 16.9332 35.6343 18.4712 35.3973 20.4204H48.9479Z" fill="#E5E7EB"/>
<path d="M68.6822 30.6077L75.613 10.096H80.9888L71.6589 35.2674H65.6167L56.3312 10.096H61.7515L68.6822 30.6077Z" fill="#E5E7EB"/>
<path d="M86.8609 35.5872C85.9427 35.5872 85.1727 35.2674 84.5507 34.6279C83.9287 33.9883 83.6177 33.1965 83.6177 32.2523C83.6177 31.3082 83.9287 30.5164 84.5507 29.8768C85.1727 29.2372 85.9427 28.9175 86.8609 28.9175C87.7495 28.9175 88.5048 29.2372 89.1268 29.8768C89.7487 30.5164 90.0597 31.3082 90.0597 32.2523C90.0597 33.1965 89.7487 33.9883 89.1268 34.6279C88.5048 35.2674 87.7495 35.5872 86.8609 35.5872Z" fill="#E5E7EB"/>
<path d="M105.797 14.3445H101.265V35.2674H96.1558V14.3445H93.2679V10.096H96.1558V8.31434C96.1558 5.42107 96.8962 3.31964 98.3771 2.01006C99.8877 0.67002 102.242 0 105.441 0V4.3399C103.901 4.3399 102.82 4.64446 102.198 5.25357C101.576 5.83222 101.265 6.85248 101.265 8.31434V10.096H105.797V14.3445Z" fill="#E5E7EB"/>
<path d="M112.862 6.76111C111.944 6.76111 111.174 6.44133 110.552 5.80176C109.93 5.1622 109.619 4.37036 109.619 3.42624C109.619 2.48212 109.93 1.69028 110.552 1.05071C111.174 0.411148 111.944 0.0913652 112.862 0.0913652C113.751 0.0913652 114.506 0.411148 115.128 1.05071C115.75 1.69028 116.061 2.48212 116.061 3.42624C116.061 4.37036 115.75 5.1622 115.128 5.80176C114.506 6.44133 113.751 6.76111 112.862 6.76111ZM115.35 10.096V35.2674H110.285V10.096H115.35Z" fill="#E5E7EB"/>
<path d="M134.351 9.68484C136.276 9.68484 137.994 10.096 139.504 10.9183C141.044 11.7406 142.244 12.9588 143.103 14.5729C143.962 16.1871 144.391 18.1362 144.391 20.4204V35.2674H139.371V21.197C139.371 18.9433 138.823 17.2226 137.727 16.0348C136.631 14.8166 135.136 14.2075 133.24 14.2075C131.344 14.2075 129.834 14.8166 128.708 16.0348C127.612 17.2226 127.064 18.9433 127.064 21.197V35.2674H122V10.096H127.064V12.974C127.894 11.9385 128.945 11.1315 130.219 10.5528C131.522 9.97416 132.899 9.68484 134.351 9.68484Z" fill="#E5E7EB"/>
<path d="M149.164 22.5675C149.164 20.0397 149.667 17.8012 150.674 15.8521C151.711 13.9029 153.103 12.3954 154.85 11.3294C156.627 10.233 158.582 9.68484 160.715 9.68484C162.64 9.68484 164.314 10.0808 165.735 10.8726C167.187 11.634 168.342 12.5933 169.201 13.7506V10.096H174.31V35.2674H169.201V31.5214C168.342 32.7092 167.172 33.699 165.691 34.4908C164.21 35.2826 162.522 35.6786 160.626 35.6786C158.523 35.6786 156.598 35.1304 154.85 34.034C153.103 32.9071 151.711 31.3539 150.674 29.3743C149.667 27.3642 149.164 25.0953 149.164 22.5675ZM169.201 22.6589C169.201 20.9229 168.845 19.4154 168.134 18.1362C167.453 16.8571 166.55 15.8825 165.424 15.2125C164.299 14.5425 163.084 14.2075 161.781 14.2075C160.478 14.2075 159.264 14.5425 158.138 15.2125C157.013 15.8521 156.094 16.8114 155.383 18.0905C154.702 19.3392 154.362 20.8315 154.362 22.5675C154.362 24.3035 154.702 25.8262 155.383 27.1358C156.094 28.4454 157.013 29.4504 158.138 30.1509C159.293 30.8209 160.508 31.1559 161.781 31.1559C163.084 31.1559 164.299 30.8209 165.424 30.1509C166.55 29.4809 167.453 28.5063 168.134 27.2272C168.845 25.9176 169.201 24.3948 169.201 22.6589Z" fill="#E5E7EB"/>
<path d="M193.313 9.68484C195.238 9.68484 196.956 10.096 198.467 10.9183C200.007 11.7406 201.207 12.9588 202.066 14.5729C202.924 16.1871 203.354 18.1362 203.354 20.4204V35.2674H198.334V21.197C198.334 18.9433 197.786 17.2226 196.69 16.0348C195.594 14.8166 194.098 14.2075 192.202 14.2075C190.307 14.2075 188.796 14.8166 187.671 16.0348C186.575 17.2226 186.027 18.9433 186.027 21.197V35.2674H180.962V10.096H186.027V12.974C186.856 11.9385 187.908 11.1315 189.181 10.5528C190.485 9.97416 191.862 9.68484 193.313 9.68484Z" fill="#E5E7EB"/>
<path d="M208.126 22.6589C208.126 20.0701 208.63 17.8012 209.637 15.8521C210.673 13.8725 212.095 12.3497 213.902 11.2837C215.709 10.2178 217.782 9.68484 220.122 9.68484C223.084 9.68484 225.527 10.4158 227.452 11.8776C229.407 13.309 230.725 15.3648 231.406 18.0449H225.942C225.497 16.7962 224.787 15.8216 223.809 15.1211C222.832 14.4207 221.603 14.0704 220.122 14.0704C218.048 14.0704 216.39 14.8318 215.146 16.3546C213.931 17.8469 213.324 19.9483 213.324 22.6589C213.324 25.3694 213.931 27.4861 215.146 29.0088C216.39 30.5316 218.048 31.293 220.122 31.293C223.054 31.293 224.994 29.9682 225.942 27.3185H231.406C230.696 29.8768 229.363 31.9173 227.408 33.4401C225.453 34.9324 223.024 35.6786 220.122 35.6786C217.782 35.6786 215.709 35.1456 213.902 34.0797C212.095 32.9833 210.673 31.4605 209.637 29.5113C208.63 27.5317 208.126 25.2476 208.126 22.6589Z" fill="#E5E7EB"/>
<path d="M258.89 22.065C258.89 23.0091 258.831 23.8619 258.712 24.6232H240.008C240.156 26.6333 240.882 28.2474 242.185 29.4657C243.488 30.6839 245.088 31.293 246.983 31.293C249.708 31.293 251.633 30.1205 252.759 27.7754H258.224C257.483 30.09 256.135 31.9935 254.181 33.4858C252.255 34.9476 249.856 35.6786 246.983 35.6786C244.643 35.6786 242.54 35.1456 240.674 34.0797C238.838 32.9833 237.387 31.4605 236.321 29.5113C235.284 27.5317 234.766 25.2476 234.766 22.6589C234.766 20.0701 235.269 17.8012 236.276 15.8521C237.313 13.8725 238.749 12.3497 240.586 11.2837C242.452 10.2178 244.584 9.68484 246.983 9.68484C249.294 9.68484 251.352 10.2026 253.159 11.2381C254.966 12.2736 256.372 13.7354 257.379 15.6237C258.386 17.4814 258.89 19.6285 258.89 22.065ZM253.603 20.4204C253.573 18.5017 252.907 16.9637 251.604 15.8064C250.301 14.6491 248.686 14.0704 246.761 14.0704C245.014 14.0704 243.518 14.6491 242.274 15.8064C241.03 16.9332 240.289 18.4712 240.053 20.4204H253.603Z" fill="#E5E7EB"/>
<path d="M292.595 25.9742C292.595 27.2638 292.222 28.476 291.474 29.6108C290.757 30.7456 289.681 31.6999 288.246 32.4736C286.841 33.2474 285.167 33.7116 283.224 33.8664V37H280.309V33.8664C277.499 33.6342 275.227 32.8734 273.494 31.5838C271.76 30.2942 270.893 28.592 270.893 26.4771H276.363C276.453 27.483 276.827 28.3212 277.484 28.9918C278.142 29.6366 279.084 30.0492 280.309 30.2298V21.7186C278.306 21.2802 276.677 20.8417 275.422 20.4033C274.166 19.939 273.09 19.2169 272.193 18.2368C271.326 17.2567 270.893 15.9156 270.893 14.2133C270.893 12.0726 271.76 10.3059 273.494 8.9132C275.227 7.49467 277.499 6.66935 280.309 6.43723V3.30357H283.224V6.43723C285.854 6.64356 287.962 7.36572 289.546 8.6037C291.161 9.8159 292.072 11.4923 292.282 13.633H286.811C286.721 12.8335 286.363 12.1242 285.735 11.5052C285.107 10.8604 284.27 10.422 283.224 10.1899V18.5463C285.227 18.9589 286.856 19.3974 288.111 19.8616C289.367 20.3001 290.428 21.0094 291.295 21.9894C292.162 22.9437 292.595 24.272 292.595 25.9742ZM276.094 13.9812C276.094 15.0386 276.453 15.864 277.17 16.4572C277.918 17.0504 278.964 17.5275 280.309 17.8886V10.0738C279.024 10.2028 277.993 10.6025 277.215 11.2731C276.468 11.9437 276.094 12.8464 276.094 13.9812ZM283.224 30.2298C284.539 30.0492 285.57 29.5979 286.318 28.8757C287.065 28.1278 287.439 27.238 287.439 26.2063C287.439 25.1747 287.065 24.3751 286.318 23.8077C285.6 23.2145 284.569 22.7374 283.224 22.3763V30.2298Z" fill="#49AA26"/>
</svg>
